<?xml version="1.0" encoding="UTF-8" standalone="no"?>
<!DOCTYPE svg PUBLIC "-//W3C//DTD SVG 1.1//EN" "http://www.w3.org/Graphics/SVG/1.1/DTD/svg11.dtd">
<svg xmlns="http://www.w3.org/2000/svg" version="1.1" viewBox="0.00 0.00 2000.00 450.00">
<g stroke-width="2.00" fill="none" stroke-linecap="butt">
<path stroke="#043275" vector-effect="non-scaling-stroke" d="
  M 267.67 44.59
  Q 265.90 49.43 261.72 53.60"
/>
<path stroke="#043275" vector-effect="non-scaling-stroke" d="
  M 259.34 59.41
  L 257.13 65.16"
/>
<path stroke="#043275" vector-effect="non-scaling-stroke" d="
  M 246.00 86.29
  L 244.54 89.57"
/>
<path stroke="#043275" vector-effect="non-scaling-stroke" d="
  M 241.78 94.78
  Q 240.07 99.24 236.69 102.96"
/>
<path stroke="#043275" vector-effect="non-scaling-stroke" d="
  M 235.09 108.35
  L 232.91 113.04"
/>
<path stroke="#043275" vector-effect="non-scaling-stroke" d="
  M 229.48 120.74
  L 226.65 125.24"
/>
<path stroke="#043275" vector-effect="non-scaling-stroke" d="
  M 223.55 132.27
  L 220.89 137.51"
/>
<path stroke="#043275" vector-effect="non-scaling-stroke" d="
  M 149.55 284.83
  Q 150.18 282.95 149.91 281.48
  Q 149.84 281.06 150.09 280.71
  C 152.14 277.93 150.67 275.77 148.11 273.88
  C 142.40 269.65 142.79 265.30 139.58 259.94
  Q 134.23 251.00 126.09 244.30
  A 1.13 1.09 -71.2 0 1 125.68 243.43
  C 125.73 237.03 120.93 234.26 116.95 230.08
  C 111.56 224.41 107.72 215.75 103.31 210.93
  Q 98.11 205.25 96.30 202.96
  A 0.65 0.65 0.0 0 1 96.48 201.99
  Q 98.50 200.82 98.63 198.42
  Q 98.66 197.72 98.07 198.08
  L 97.76 198.26
  Q 97.37 198.49 97.28 198.04
  L 97.16 197.47"
/>
<path stroke="#034397" vector-effect="non-scaling-stroke" d="
  M 1287.80 88.87
  Q 1287.94 88.26 1288.44 88.26
  Q 1288.75 88.25 1288.95 88.01
  L 1289.35 87.52
  A 0.76 0.76 0.0 0 0 1289.22 86.43
  Q 1287.42 85.06 1285.82 86.30
  Q 1285.44 86.59 1284.98 86.44
  L 1284.25 86.21
  A 0.22 0.22 0.0 0 1 1284.26 85.78
  Q 1285.50 85.49 1285.54 84.37
  Q 1285.56 83.72 1284.89 82.87
  Q 1282.64 79.96 1281.57 76.35
  A 1.70 1.70 0.0 0 0 1281.08 75.55
  Q 1278.45 73.14 1275.73 70.79
  C 1274.28 69.53 1272.82 67.10 1270.22 66.17
  A 0.73 0.71 -80.3 0 1 1269.75 65.49
  L 1269.75 62.24
  A 2.07 2.04 31.1 0 0 1269.50 61.26
  C 1268.04 58.63 1267.11 56.24 1264.94 54.00
  C 1262.37 51.35 1260.23 49.04 1258.64 45.56
  C 1257.13 42.27 1255.98 38.44 1253.35 35.80
  Q 1249.68 32.12 1250.02 26.67
  Q 1250.05 26.23 1249.86 25.84
  Q 1246.41 18.60 1239.94 14.01
  Q 1239.53 13.72 1239.02 13.78
  Q 1238.38 13.87 1237.91 13.46
  Q 1237.54 13.14 1237.11 12.93
  Q 1235.78 12.27 1234.29 12.82
  A 0.18 0.18 0.0 0 1 1234.04 12.65
  L 1234.04 12.22
  Q 1234.04 12.02 1233.85 11.97
  L 1233.49 11.88"
/>
<path stroke="#043275" vector-effect="non-scaling-stroke" d="
  M 1839.29 8.96
  Q 1838.71 9.41 1840.16 9.86
  Q 1840.63 10.00 1840.16 10.11
  Q 1839.90 10.16 1839.79 10.27
  Q 1839.76 10.29 1839.64 10.85
  Q 1839.36 12.05 1839.14 13.27
  Q 1839.04 13.78 1838.60 14.07
  C 1836.45 15.46 1839.16 20.53 1839.13 22.50
  C 1838.93 39.04 1840.66 54.25 1839.66 72.00
  C 1839.29 78.58 1839.39 87.62 1838.73 96.00
  Q 1838.50 99.01 1836.03 99.03
  Q 1835.54 99.03 1835.13 99.31
  L 1834.05 100.05
  Q 1833.69 100.30 1834.25 100.50
  Q 1834.36 100.54 1834.47 100.63
  Q 1834.82 100.93 1834.75 101.38
  Q 1834.70 101.62 1834.77 101.83"
/>
<path stroke="#042255" vector-effect="non-scaling-stroke" d="
  M 1761.08 92.33
  Q 1762.89 88.95 1766.79 88.85
  Q 1767.90 88.82 1768.30 88.46
  Q 1768.98 87.85 1768.54 86.77
  Q 1768.28 86.14 1768.96 86.03
  L 1770.50 85.80
  Q 1771.03 85.71 1770.66 85.32
  Q 1770.11 84.74 1770.23 84.01
  Q 1771.32 77.45 1770.86 71.26
  Q 1770.23 62.80 1770.23 62.71
  Q 1769.84 48.64 1769.73 34.55
  Q 1769.73 33.91 1769.18 34.25
  L 1768.12 34.92
  A 0.42 0.41 80.5 0 1 1767.50 34.47
  Q 1767.74 33.36 1766.36 33.89
  A 0.11 0.11 0.0 0 1 1766.27 33.69
  Q 1766.48 33.57 1766.73 33.51
  A 0.10 0.10 0.0 0 0 1766.73 33.31
  L 1765.64 33.10
  Q 1764.99 32.97 1765.18 32.34
  C 1765.64 30.83 1766.74 29.91 1767.52 28.58
  Q 1769.36 25.47 1773.28 26.12
  Q 1773.39 26.14 1773.33 26.05
  Q 1773.25 25.95 1773.19 25.83
  Q 1772.96 25.40 1773.44 25.42
  Q 1775.79 25.48 1777.57 24.13
  Q 1777.76 23.99 1777.76 23.99
  Q 1777.75 24.13 1777.75 24.27
  A 0.20 0.19 -32.3 0 0 1778.12 24.35
  L 1779.83 20.86
  A 0.45 0.45 0.0 0 1 1780.06 20.63
  Q 1782.31 19.57 1785.03 20.27
  Q 1785.79 20.47 1786.12 19.87
  Q 1786.35 19.46 1786.81 19.53
  C 1790.92 20.11 1793.79 14.42 1788.88 13.39"
/>
<path stroke="#043984" vector-effect="non-scaling-stroke" d="
  M 1788.88 13.39
  C 1793.50 11.92 1799.38 10.80 1798.68 5.76
  Q 1798.61 5.25 1798.12 5.09
  Q 1797.38 4.84 1797.03 4.09
  A 0.96 0.96 0.0 0 0 1796.20 3.52
  L 1789.30 3.17
  A 0.62 0.62 0.0 0 1 1788.71 2.50
  Q 1788.89 0.37 1786.77 1.12
  A 0.06 0.06 0.0 0 0 1786.73 1.20
  Q 1786.78 1.34 1786.82 1.47
  Q 1786.88 1.62 1786.77 1.74
  Q 1786.25 2.31 1785.58 2.27
  Q 1785.14 2.24 1785.19 1.81
  Q 1785.28 0.87 1783.73 0.60"
/>
<path stroke="#043377" vector-effect="non-scaling-stroke" d="
  M 1788.88 13.39
  Q 1781.95 15.38 1773.69 19.43
  C 1718.11 46.69 1677.20 92.46 1656.73 150.37
  Q 1654.35 157.09 1652.33 165.30
  C 1650.64 172.17 1646.95 182.78 1651.45 185.84"
/>
<path stroke="#043377" vector-effect="non-scaling-stroke" d="
  M 1653.21 267.06
  Q 1650.28 274.68 1652.57 281.95
  C 1655.44 291.08 1657.77 300.47 1661.62 309.01
  Q 1669.46 326.42 1676.05 337.69
  C 1688.45 358.89 1705.72 379.17 1725.25 395.33
  C 1736.80 404.89 1744.33 410.16 1758.18 418.54"
/>
<path stroke="#043984" vector-effect="non-scaling-stroke" d="
  M 1758.18 418.54
  Q 1767.31 423.79 1776.85 427.86
  Q 1778.34 428.49 1779.92 429.45
  C 1785.14 432.63 1792.27 432.64 1796.82 436.52
  Q 1799.15 438.51 1801.31 439.36"
/>
<path stroke="#034397" vector-effect="non-scaling-stroke" d="
  M 1801.31 439.36
  Q 1803.56 438.87 1804.33 440.26
  A 1.36 1.30 0.6 0 0 1804.88 440.80
  Q 1806.34 441.57 1807.21 442.94"
/>
<path stroke="#034397" vector-effect="non-scaling-stroke" d="
  M 1577.14 307.32
  Q 1577.47 306.71 1577.32 305.95
  Q 1577.20 305.34 1577.81 305.44
  L 1579.55 305.73
  A 0.38 0.38 0.0 0 0 1579.97 305.24
  Q 1578.79 301.60 1581.35 298.84
  A 1.56 1.49 -21.9 0 0 1581.75 297.96
  Q 1582.52 290.13 1580.78 282.50
  C 1580.10 279.49 1580.94 274.56 1580.83 271.18
  C 1580.25 252.16 1580.72 232.94 1580.79 213.90
  C 1580.82 207.59 1580.47 200.29 1580.49 193.45
  Q 1580.50 193.06 1580.24 192.75
  Q 1579.80 192.23 1579.21 192.24
  Q 1578.57 192.25 1578.65 191.62
  C 1579.70 183.71 1578.33 175.90 1578.63 167.71
  C 1578.90 160.34 1582.40 156.31 1577.24 149.33
  Q 1576.95 148.93 1576.45 149.00
  L 1576.17 149.04
  Q 1575.89 149.07 1575.87 148.80
  L 1575.67 145.62
  Q 1575.63 145.04 1575.10 144.81
  Q 1574.93 144.73 1574.76 144.67"
/>
<path stroke="#043275" vector-effect="non-scaling-stroke" d="
  M 845.02 435.19
  Q 845.69 433.18 846.96 432.90
  A 0.84 0.83 37.8 0 0 846.75 431.25
  C 844.56 431.32 843.41 429.67 843.38 427.50
  C 843.19 416.15 846.79 405.10 845.19 392.50
  C 844.29 385.39 846.08 379.53 842.90 372.58
  Q 842.69 372.12 842.76 371.62
  C 843.23 368.42 842.73 364.57 842.83 362.24
  Q 843.05 356.64 844.04 350.56
  A 1.28 1.28 0.0 0 0 842.30 349.16
  Q 841.96 349.30 841.73 349.25
  Q 841.25 349.13 841.08 348.93
  L 838.05 345.35
  Q 837.72 344.95 837.91 344.47
  Q 838.59 342.72 837.83 342.08"
/>
<path stroke="#043275" vector-effect="non-scaling-stroke" d="
  M 625.02 226.97
  L 624.23 186.54
  A 0.16 0.16 0.0 0 0 623.93 186.47
  L 623.70 186.99
  A 0.09 0.09 0.0 0 1 623.53 186.98
  L 623.36 186.46
  Q 622.76 184.54 622.44 186.52
  C 622.00 189.29 622.79 192.65 621.59 195.13
  A 0.85 0.85 0.0 0 1 619.98 194.79
  Q 619.90 192.10 617.73 191.64
  C 615.17 191.08 614.17 192.72 613.29 194.97
  Q 611.13 200.52 607.59 205.25
  C 604.78 209.00 604.40 212.10 604.29 216.55
  C 604.21 219.86 601.65 218.35 600.12 219.32
  C 596.37 221.71 597.93 227.83 594.35 230.07
  Q 593.92 230.34 593.70 230.78
  C 591.46 235.20 589.47 239.56 586.23 243.35
  C 584.04 245.91 584.14 248.33 584.58 252.14
  A 0.99 0.97 -19.5 0 1 584.12 253.08
  L 582.20 254.24
  Q 581.80 254.48 581.57 254.88
  C 580.53 256.77 581.59 259.43 578.65 260.03
  Q 578.16 260.13 577.82 260.49
  L 575.42 262.96
  Q 575.11 263.28 575.21 263.72
  L 576.01 267.39
  A 1.10 1.08 -29.5 0 1 575.73 268.37
  Q 573.39 270.86 570.42 272.62
  A 0.78 0.74 88.2 0 0 570.12 272.96
  L 564.66 284.95
  Q 564.47 285.37 564.11 285.65
  C 561.73 287.45 560.26 291.61 558.32 294.14
  Q 558.00 294.56 557.49 294.74
  Q 554.22 295.89 553.06 299.07
  Q 552.88 299.56 553.02 300.06
  Q 553.43 301.47 552.69 303.22"
/>
<path stroke="#034397" vector-effect="non-scaling-stroke" d="
  M 1882.00 25.99
  Q 1881.20 26.13 1882.65 27.25
  A 0.15 0.15 0.0 0 1 1882.48 27.50
  L 1882.17 27.32
  A 0.17 0.17 0.0 0 0 1881.96 27.58
  L 1882.18 27.80
  Q 1882.42 28.04 1882.19 28.29
  C 1875.56 35.72 1880.71 47.82 1880.71 56.77
  Q 1880.72 70.88 1880.76 85.00
  C 1880.77 89.65 1879.82 94.50 1879.98 99.33
  C 1880.15 104.82 1879.43 110.30 1880.40 115.79
  Q 1881.23 120.53 1880.84 125.37
  Q 1880.80 125.86 1880.48 126.25
  L 1878.94 128.18
  A 0.17 0.17 0.0 0 0 1879.05 128.45
  L 1879.38 128.49
  Q 1879.94 128.57 1879.66 129.06
  Q 1879.55 129.26 1879.24 129.27
  Q 1878.45 129.31 1876.27 129.04
  A 0.23 0.22 78.1 0 0 1876.05 129.38
  L 1876.26 129.74
  Q 1876.54 130.21 1875.89 130.05
  Q 1875.55 129.96 1875.29 130.32"
/>
<path stroke="#043377" vector-effect="non-scaling-stroke" d="
  M 1227.21 110.40
  L 1222.10 108.55"
/>
<path stroke="#043377" vector-effect="non-scaling-stroke" d="
  M 1218.86 109.61
  L 1210.00 114.21"
/>
<path stroke="#043377" vector-effect="non-scaling-stroke" d="
  M 1207.86 115.29
  C 1204.68 117.15 1201.20 118.82 1198.22 120.81
  Q 1182.07 131.59 1171.79 139.54
  Q 1171.11 140.07 1169.02 142.45"
/>
<path stroke="#043377" vector-effect="non-scaling-stroke" d="
  M 1159.49 151.49
  Q 1157.64 152.55 1156.50 154.36"
/>
<path stroke="#043377" vector-effect="non-scaling-stroke" d="
  M 1153.35 157.39
  L 1150.35 160.63"
/>
<path stroke="#043377" vector-effect="non-scaling-stroke" d="
  M 1148.43 162.66
  L 1145.32 166.05"
/>
<path stroke="#043377" vector-effect="non-scaling-stroke" d="
  M 1143.12 168.72
  L 1133.39 182.40"
/>
<path stroke="#043377" vector-effect="non-scaling-stroke" d="
  M 1130.43 186.55
  L 1127.24 190.20"
/>
<path stroke="#043377" vector-effect="non-scaling-stroke" d="
  M 1126.27 192.11
  L 1120.99 201.04"
/>
<path stroke="#043377" vector-effect="non-scaling-stroke" d="
  M 1119.70 204.22
  L 1115.44 211.98"
/>
<path stroke="#043377" vector-effect="non-scaling-stroke" d="
  M 1113.88 215.57
  L 1110.12 223.64"
/>
<path stroke="#043377" vector-effect="non-scaling-stroke" d="
  M 1108.33 227.32
  L 1102.91 241.25"
/>
<path stroke="#043377" vector-effect="non-scaling-stroke" d="
  M 1102.54 244.14
  C 1101.68 245.52 1102.17 247.12 1101.67 248.53
  C 1099.57 254.30 1097.02 259.99 1096.58 266.24
  C 1096.09 273.29 1095.90 285.65 1091.27 292.48"
/>
<path stroke="#034397" vector-effect="non-scaling-stroke" d="
  M 1894.48 413.01
  Q 1893.59 410.45 1892.93 410.22
  A 3.01 2.15 -77.0 0 1 1891.63 407.09
  C 1892.46 402.24 1893.33 397.62 1893.33 392.59
  C 1893.31 382.72 1893.26 372.84 1893.59 362.97
  C 1893.83 355.96 1891.91 349.24 1891.65 343.00
  Q 1890.99 327.13 1891.78 311.25
  Q 1891.87 309.48 1891.08 307.92
  A 1.18 1.16 -5.9 0 0 1890.30 307.30
  L 1887.22 306.57
  Q 1886.78 306.46 1886.41 306.73
  L 1886.01 307.02
  A 0.15 0.15 0.0 0 1 1885.82 306.80
  L 1886.27 306.35
  Q 1886.59 306.04 1886.14 306.05
  Q 1885.41 306.08 1885.43 305.45"
/>
<path stroke="#043275" vector-effect="non-scaling-stroke" d="
  M 307.19 122.02
  Q 306.08 121.91 305.71 122.57
  Q 305.48 123.00 304.99 123.00
  L 303.92 123.00
  A 0.66 0.65 -89.1 0 0 303.27 123.64
  L 303.24 125.31
  Q 303.23 125.78 302.80 125.95
  C 295.84 128.65 289.90 136.30 285.01 141.20
  C 280.69 145.53 275.75 152.28 270.55 155.27
  C 263.47 159.34 259.39 165.16 253.05 169.78
  C 249.69 172.22 248.37 175.38 245.33 177.94
  Q 244.17 178.92 243.74 180.49
  A 0.41 0.41 0.0 0 1 243.05 180.67
  L 242.81 180.44
  A 0.64 0.64 0.0 0 0 241.91 180.42
  Q 241.49 180.82 241.64 181.54"
/>
<path stroke="#042b68" vector-effect="non-scaling-stroke" d="
  M 1201.55 314.08
  Q 1201.63 315.65 1201.12 316.57
  A 0.60 0.60 0.0 0 1 1200.05 316.54
  L 1198.61 313.62
  Q 1198.42 313.24 1198.00 313.25
  Q 1197.84 313.25 1197.68 313.24
  A 0.29 0.29 0.0 0 0 1197.39 313.57
  Q 1197.71 315.56 1195.66 315.77
  A 1.04 1.03 -77.2 0 0 1194.87 316.27
  C 1192.80 319.73 1190.26 322.64 1188.61 326.28
  Q 1187.32 329.13 1185.92 331.93
  C 1183.91 335.97 1180.32 339.09 1177.59 342.82
  C 1175.82 345.22 1175.49 348.00 1174.77 350.84
  Q 1174.63 351.41 1174.48 350.91
  Q 1174.42 350.74 1174.47 350.50
  Q 1174.63 349.75 1174.46 349.01
  Q 1174.31 348.32 1174.14 349.00
  C 1172.96 353.63 1170.03 356.24 1168.36 360.16
  C 1165.17 367.64 1159.32 383.81 1148.73 383.34
  Q 1147.97 383.31 1148.46 383.88
  L 1150.33 386.03
  Q 1150.63 386.37 1150.45 386.79
  Q 1150.37 387.00 1150.19 387.09"
/>
<path stroke="#034397" vector-effect="non-scaling-stroke" d="
  M 352.01 213.48
  Q 350.45 212.86 350.01 214.47
  Q 349.16 217.63 346.24 217.78
  A 1.27 1.26 -71.0 0 0 345.36 218.21
  C 343.70 220.11 342.39 222.27 340.70 223.90
  C 336.51 227.92 332.13 231.60 327.99 235.79
  C 324.42 239.40 319.71 242.75 316.61 245.82
  C 309.32 253.02 303.23 257.29 295.91 262.49
  C 294.23 263.67 292.46 265.46 289.94 266.40
  A 1.13 1.13 0.0 0 0 289.27 267.07
  Q 288.73 268.51 287.19 267.88
  C 286.43 267.58 286.49 267.26 285.86 266.79
  Q 285.50 266.53 285.13 266.78
  L 283.92 267.58"
/>
<path stroke="#043275" vector-effect="non-scaling-stroke" d="
  M 636.53 284.35
  C 634.68 285.97 635.18 289.16 636.51 291.31
  C 638.81 295.01 639.28 299.60 640.58 302.87
  C 649.44 325.10 660.21 342.82 675.31 361.67"
/>
<path stroke="#034397" vector-effect="non-scaling-stroke" d="
  M 675.31 361.67
  Q 674.07 362.25 674.40 363.95
  Q 675.16 367.77 672.00 370.36
  A 1.07 1.03 76.3 0 0 671.64 370.98
  Q 671.16 373.68 669.08 375.37
  Q 668.59 375.77 668.76 376.37
  C 669.26 378.17 667.98 379.40 667.70 380.63
  C 666.79 384.73 667.44 386.49 663.60 389.17
  A 1.68 1.66 -6.4 0 0 662.98 389.94
  Q 661.98 392.37 660.83 394.74
  C 659.16 398.15 656.07 400.36 656.25 405.19
  A 1.64 1.63 69.8 0 1 655.62 406.56
  Q 652.22 409.19 650.05 412.88
  Q 649.78 413.34 649.33 413.62
  Q 646.66 415.29 643.79 414.15
  A 0.56 0.56 0.0 0 0 643.35 415.17
  L 643.69 415.33
  A 0.20 0.19 48.5 0 1 643.67 415.69
  L 643.32 415.81
  Q 643.25 415.83 643.32 415.86
  Q 643.97 416.14 643.66 416.59"
/>
<path stroke="#042255" vector-effect="non-scaling-stroke" d="
  M 112.72 359.76
  Q 112.00 359.27 111.58 360.62
  Q 111.41 361.16 111.07 360.71
  Q 110.89 360.47 110.73 360.50
  C 107.55 361.24 105.46 360.03 104.30 356.85
  C 102.55 352.07 100.64 347.37 96.68 343.83
  C 91.39 339.10 88.03 332.40 84.77 324.74
  C 83.89 322.67 80.67 321.46 79.20 319.34
  C 75.39 313.85 71.91 308.99 67.58 303.88
  C 65.28 301.17 65.47 298.44 62.32 295.68
  C 58.61 292.41 54.92 286.88 58.00 282.53
  Q 59.14 280.93 59.67 279.54
  A 0.31 0.30 -21.6 0 0 59.11 279.30
  Q 59.01 279.50 58.91 279.74
  A 0.26 0.26 0.0 0 1 58.42 279.57
  L 59.92 273.47"
/>
<path stroke="#042255" vector-effect="non-scaling-stroke" d="
  M 1739.75 351.34
  Q 1741.03 356.02 1746.28 359.25
  A 1.19 1.18 -80.0 0 1 1746.82 360.03
  C 1748.84 370.31 1747.83 379.59 1749.30 389.50
  Q 1749.36 389.93 1748.95 389.82
  Q 1747.66 389.51 1747.23 390.72
  C 1746.43 392.95 1748.60 396.31 1746.53 397.90
  A 0.89 0.86 -17.3 0 0 1746.19 398.52
  L 1745.93 401.81
  A 0.47 0.47 0.0 0 1 1745.43 402.24
  L 1743.39 402.13
  A 0.40 0.40 0.0 0 0 1743.10 402.83
  L 1745.20 404.72
  A 0.68 0.68 0.0 0 1 1745.44 405.28
  C 1745.24 410.10 1750.67 408.72 1753.59 410.19
  Q 1753.97 410.38 1754.06 410.79
  L 1754.44 412.47
  A 0.37 0.31 13.1 0 0 1754.60 412.68
  L 1756.74 413.89
  Q 1757.12 414.11 1757.56 414.14
  Q 1762.41 414.46 1762.54 419.53
  A 0.36 0.36 0.0 0 1 1762.06 419.89
  L 1758.18 418.54"
/>
<path stroke="#043984" vector-effect="non-scaling-stroke" d="
  M 818.54 443.24
  Q 818.40 441.54 816.96 441.44
  Q 816.50 441.41 816.48 440.95
  Q 816.42 439.96 815.50 439.92
  C 802.16 439.29 791.73 436.78 779.29 432.85
  Q 735.58 419.04 701.95 389.04
  Q 688.74 377.25 675.31 361.67"
/>
<path stroke="#034397" vector-effect="non-scaling-stroke" d="
  M 1228.79 433.63
  Q 1227.68 433.24 1227.71 432.53
  Q 1227.72 431.98 1228.27 432.04
  Q 1230.07 432.23 1230.61 430.86
  C 1232.11 427.02 1235.01 423.49 1237.68 420.40
  A 1.32 1.31 65.5 0 0 1238.00 419.54
  L 1238.00 418.25
  Q 1238.00 417.75 1238.50 417.75
  L 1238.96 417.75
  Q 1239.42 417.75 1239.61 417.33
  Q 1243.48 408.68 1247.88 400.24
  C 1249.76 396.64 1248.25 394.03 1252.21 391.16
  C 1255.57 388.74 1258.27 385.84 1258.45 381.49
  C 1258.54 379.17 1260.00 375.85 1262.12 373.81
  C 1265.33 370.72 1265.94 366.74 1267.18 363.49
  Q 1268.40 360.33 1269.10 356.96
  Q 1269.20 356.50 1268.73 356.50
  L 1267.77 356.50
  Q 1266.95 356.50 1267.50 355.89
  L 1268.99 354.24"
/>
<path stroke="#043275" vector-effect="non-scaling-stroke" d="
  M 1801.31 439.36
  C 1803.70 438.66 1808.80 437.80 1807.17 434.51
  Q 1806.68 433.52 1806.36 432.49
  Q 1806.26 432.19 1806.42 431.91
  Q 1806.78 431.30 1807.33 431.02
  Q 1807.93 430.70 1807.32 430.41
  L 1806.84 430.18
  A 0.23 0.22 -33.6 0 1 1806.93 429.75
  Q 1807.06 429.74 1807.20 429.76
  Q 1807.66 429.83 1807.42 429.43
  L 1806.82 428.43
  A 0.14 0.14 0.0 0 1 1807.01 428.24
  L 1807.37 428.45
  Q 1807.71 428.66 1807.72 428.25
  Q 1807.74 427.35 1808.12 426.57
  Q 1808.33 426.13 1808.29 425.64
  C 1807.38 415.33 1807.30 406.04 1808.35 395.72
  C 1808.81 391.10 1807.87 386.13 1807.71 379.39
  C 1807.61 375.21 1808.00 367.47 1807.37 361.46
  Q 1807.32 361.00 1807.78 361.00
  L 1808.17 361.00
  Q 1808.79 361.00 1808.78 360.38
  Q 1808.74 356.51 1802.92 355.93"
/>
</g>
<path fill="#033b88" d="
  M 217.07 0.00
  L 225.06 0.00
  C 227.31 0.47 229.48 0.54 231.59 1.30
  C 252.03 8.62 260.45 24.64 267.67 44.59
  Q 265.90 49.43 261.72 53.60
  Q 259.07 55.69 259.34 59.41
  L 257.13 65.16
  L 254.87 66.96
  Q 254.45 67.29 254.36 67.81
  Q 253.18 74.04 249.02 78.72
  Q 248.68 79.10 248.50 79.58
  L 246.00 86.29
  L 244.54 89.57
  Q 242.25 91.75 241.78 94.78
  Q 240.07 99.24 236.69 102.96
  L 235.09 108.35
  L 232.91 113.04
  Q 230.23 116.09 229.48 120.74
  L 226.65 125.24
  Q 224.38 127.98 223.55 132.27
  L 220.89 137.51
  C 218.18 143.96 215.61 150.18 212.53 156.47
  Q 181.11 220.67 149.55 284.83
  Q 150.18 282.95 149.91 281.48
  Q 149.84 281.06 150.09 280.71
  C 152.14 277.93 150.67 275.77 148.11 273.88
  C 142.40 269.65 142.79 265.30 139.58 259.94
  Q 134.23 251.00 126.09 244.30
  A 1.13 1.09 -71.2 0 1 125.68 243.43
  C 125.73 237.03 120.93 234.26 116.95 230.08
  C 111.56 224.41 107.72 215.75 103.31 210.93
  Q 98.11 205.25 96.30 202.96
  A 0.65 0.65 0.0 0 1 96.48 201.99
  Q 98.50 200.82 98.63 198.42
  Q 98.66 197.72 98.07 198.08
  L 97.76 198.26
  Q 97.37 198.49 97.28 198.04
  L 97.16 197.47
  Q 139.12 112.03 181.06 26.56
  C 188.20 12.00 200.87 2.83 217.07 0.00
  Z"
/>
<path fill="#033b88" d="
  M 1309.06 0.00
  L 1310.57 0.00
  Q 1335.35 3.93 1352.33 8.13
  Q 1408.92 22.12 1451.92 63.10
  C 1456.37 67.34 1460.98 73.14 1463.57 78.75
  C 1473.68 100.64 1463.34 127.17 1440.79 136.50
  Q 1417.21 146.26 1396.15 128.53
  Q 1391.52 124.64 1386.91 120.59
  C 1360.21 97.18 1323.39 83.95 1287.80 88.87
  Q 1287.94 88.26 1288.44 88.26
  Q 1288.75 88.25 1288.95 88.01
  L 1289.35 87.52
  A 0.76 0.76 0.0 0 0 1289.22 86.43
  Q 1287.42 85.06 1285.82 86.30
  Q 1285.44 86.59 1284.98 86.44
  L 1284.25 86.21
  A 0.22 0.22 0.0 0 1 1284.26 85.78
  Q 1285.50 85.49 1285.54 84.37
  Q 1285.56 83.72 1284.89 82.87
  Q 1282.64 79.96 1281.57 76.35
  A 1.70 1.70 0.0 0 0 1281.08 75.55
  Q 1278.45 73.14 1275.73 70.79
  C 1274.28 69.53 1272.82 67.10 1270.22 66.17
  A 0.73 0.71 -80.3 0 1 1269.75 65.49
  L 1269.75 62.24
  A 2.07 2.04 31.1 0 0 1269.50 61.26
  C 1268.04 58.63 1267.11 56.24 1264.94 54.00
  C 1262.37 51.35 1260.23 49.04 1258.64 45.56
  C 1257.13 42.27 1255.98 38.44 1253.35 35.80
  Q 1249.68 32.12 1250.02 26.67
  Q 1250.05 26.23 1249.86 25.84
  Q 1246.41 18.60 1239.94 14.01
  Q 1239.53 13.72 1239.02 13.78
  Q 1238.38 13.87 1237.91 13.46
  Q 1237.54 13.14 1237.11 12.93
  Q 1235.78 12.27 1234.29 12.82
  A 0.18 0.18 0.0 0 1 1234.04 12.65
  L 1234.04 12.22
  Q 1234.04 12.02 1233.85 11.97
  L 1233.49 11.88
  C 1247.54 7.28 1261.63 5.15 1276.07 2.14
  C 1287.66 -0.27 1298.05 0.49 1309.06 0.00
  Z"
/>
<path fill="#042862" d="
  M 1839.29 8.96
  Q 1838.71 9.41 1840.16 9.86
  Q 1840.63 10.00 1840.16 10.11
  Q 1839.90 10.16 1839.79 10.27
  Q 1839.76 10.29 1839.64 10.85
  Q 1839.36 12.05 1839.14 13.27
  Q 1839.04 13.78 1838.60 14.07
  C 1836.45 15.46 1839.16 20.53 1839.13 22.50
  C 1838.93 39.04 1840.66 54.25 1839.66 72.00
  C 1839.29 78.58 1839.39 87.62 1838.73 96.00
  Q 1838.50 99.01 1836.03 99.03
  Q 1835.54 99.03 1835.13 99.31
  L 1834.05 100.05
  Q 1833.69 100.30 1834.25 100.50
  Q 1834.36 100.54 1834.47 100.63
  Q 1834.82 100.93 1834.75 101.38
  Q 1834.70 101.62 1834.77 101.83
  Q 1827.46 99.43 1820.29 96.55
  Q 1816.34 94.96 1812.44 94.36
  Q 1801.82 92.73 1791.18 91.12
  Q 1778.46 89.19 1761.08 92.33
  Q 1762.89 88.95 1766.79 88.85
  Q 1767.90 88.82 1768.30 88.46
  Q 1768.98 87.85 1768.54 86.77
  Q 1768.28 86.14 1768.96 86.03
  L 1770.50 85.80
  Q 1771.03 85.71 1770.66 85.32
  Q 1770.11 84.74 1770.23 84.01
  Q 1771.32 77.45 1770.86 71.26
  Q 1770.23 62.80 1770.23 62.71
  Q 1769.84 48.64 1769.73 34.55
  Q 1769.73 33.91 1769.18 34.25
  L 1768.12 34.92
  A 0.42 0.41 80.5 0 1 1767.50 34.47
  Q 1767.74 33.36 1766.36 33.89
  A 0.11 0.11 0.0 0 1 1766.27 33.69
  Q 1766.48 33.57 1766.73 33.51
  A 0.10 0.10 0.0 0 0 1766.73 33.31
  L 1765.64 33.10
  Q 1764.99 32.97 1765.18 32.34
  C 1765.64 30.83 1766.74 29.91 1767.52 28.58
  Q 1769.36 25.47 1773.28 26.12
  Q 1773.39 26.14 1773.33 26.05
  Q 1773.25 25.95 1773.19 25.83
  Q 1772.96 25.40 1773.44 25.42
  Q 1775.79 25.48 1777.57 24.13
  Q 1777.76 23.99 1777.76 23.99
  Q 1777.75 24.13 1777.75 24.27
  A 0.20 0.19 -32.3 0 0 1778.12 24.35
  L 1779.83 20.86
  A 0.45 0.45 0.0 0 1 1780.06 20.63
  Q 1782.31 19.57 1785.03 20.27
  Q 1785.79 20.47 1786.12 19.87
  Q 1786.35 19.46 1786.81 19.53
  C 1790.92 20.11 1793.79 14.42 1788.88 13.39
  C 1793.50 11.92 1799.38 10.80 1798.68 5.76
  Q 1798.61 5.25 1798.12 5.09
  Q 1797.38 4.84 1797.03 4.09
  A 0.96 0.96 0.0 0 0 1796.20 3.52
  L 1789.30 3.17
  A 0.62 0.62 0.0 0 1 1788.71 2.50
  Q 1788.89 0.37 1786.77 1.12
  A 0.06 0.06 0.0 0 0 1786.73 1.20
  Q 1786.78 1.34 1786.82 1.47
  Q 1786.88 1.62 1786.77 1.74
  Q 1786.25 2.31 1785.58 2.27
  Q 1785.14 2.24 1785.19 1.81
  Q 1785.28 0.87 1783.73 0.60
  Q 1797.52 -0.22 1806.00 0.55
  Q 1807.85 0.71 1808.86 3.02
  A 0.94 0.94 0.0 0 0 1809.60 3.58
  Q 1823.45 5.38 1834.49 7.53
  Q 1836.44 7.92 1839.29 8.96
  Z"
/>
<path fill="#034aa6" d="
  M 1783.73 0.60
  Q 1785.28 0.87 1785.19 1.81
  Q 1785.14 2.24 1785.58 2.27
  Q 1786.25 2.31 1786.77 1.74
  Q 1786.88 1.62 1786.82 1.47
  Q 1786.78 1.34 1786.73 1.20
  A 0.06 0.06 0.0 0 1 1786.77 1.12
  Q 1788.89 0.37 1788.71 2.50
  A 0.62 0.62 0.0 0 0 1789.30 3.17
  L 1796.20 3.52
  A 0.96 0.96 0.0 0 1 1797.03 4.09
  Q 1797.38 4.84 1798.12 5.09
  Q 1798.61 5.25 1798.68 5.76
  C 1799.38 10.80 1793.50 11.92 1788.88 13.39
  Q 1781.95 15.38 1773.69 19.43
  C 1718.11 46.69 1677.20 92.46 1656.73 150.37
  Q 1654.35 157.09 1652.33 165.30
  C 1650.64 172.17 1646.95 182.78 1651.45 185.84
  Q 1650.06 188.92 1649.27 192.25
  Q 1644.49 212.39 1645.76 232.95
  C 1646.13 238.90 1647.33 245.86 1648.21 252.25
  Q 1648.87 257.00 1651.93 262.05
  Q 1653.81 265.16 1653.21 267.06
  Q 1650.28 274.68 1652.57 281.95
  C 1655.44 291.08 1657.77 300.47 1661.62 309.01
  Q 1669.46 326.42 1676.05 337.69
  C 1688.45 358.89 1705.72 379.17 1725.25 395.33
  C 1736.80 404.89 1744.33 410.16 1758.18 418.54
  Q 1767.31 423.79 1776.85 427.86
  Q 1778.34 428.49 1779.92 429.45
  C 1785.14 432.63 1792.27 432.64 1796.82 436.52
  Q 1799.15 438.51 1801.31 439.36
  Q 1803.56 438.87 1804.33 440.26
  A 1.36 1.30 0.6 0 0 1804.88 440.80
  Q 1806.34 441.57 1807.21 442.94
  Q 1802.25 443.77 1800.19 443.92
  C 1702.78 450.95 1615.17 396.89 1577.14 307.32
  Q 1577.47 306.71 1577.32 305.95
  Q 1577.20 305.34 1577.81 305.44
  L 1579.55 305.73
  A 0.38 0.38 0.0 0 0 1579.97 305.24
  Q 1578.79 301.60 1581.35 298.84
  A 1.56 1.49 -21.9 0 0 1581.75 297.96
  Q 1582.52 290.13 1580.78 282.50
  C 1580.10 279.49 1580.94 274.56 1580.83 271.18
  C 1580.25 252.16 1580.72 232.94 1580.79 213.90
  C 1580.82 207.59 1580.47 200.29 1580.49 193.45
  Q 1580.50 193.06 1580.24 192.75
  Q 1579.80 192.23 1579.21 192.24
  Q 1578.57 192.25 1578.65 191.62
  C 1579.70 183.71 1578.33 175.90 1578.63 167.71
  C 1578.90 160.34 1582.40 156.31 1577.24 149.33
  Q 1576.95 148.93 1576.45 149.00
  L 1576.17 149.04
  Q 1575.89 149.07 1575.87 148.80
  L 1575.67 145.62
  Q 1575.63 145.04 1575.10 144.81
  Q 1574.93 144.73 1574.76 144.67
  C 1601.23 76.67 1658.79 24.51 1730.19 7.68
  Q 1741.96 4.90 1760.52 2.11
  A 1.72 1.67 20.5 0 0 1761.32 1.76
  Q 1761.61 1.54 1761.76 1.53
  Q 1772.73 0.52 1783.73 0.60
  Z"
/>
<path fill="#033b88" d="
  M 845.02 435.19
  Q 845.69 433.18 846.96 432.90
  A 0.84 0.83 37.8 0 0 846.75 431.25
  C 844.56 431.32 843.41 429.67 843.38 427.50
  C 843.19 416.15 846.79 405.10 845.19 392.50
  C 844.29 385.39 846.08 379.53 842.90 372.58
  Q 842.69 372.12 842.76 371.62
  C 843.23 368.42 842.73 364.57 842.83 362.24
  Q 843.05 356.64 844.04 350.56
  A 1.28 1.28 0.0 0 0 842.30 349.16
  Q 841.96 349.30 841.73 349.25
  Q 841.25 349.13 841.08 348.93
  L 838.05 345.35
  Q 837.72 344.95 837.91 344.47
  Q 838.59 342.72 837.83 342.08
  C 872.79 318.06 894.70 281.30 897.93 238.42
  Q 898.48 231.06 898.49 218.95
  Q 898.52 134.60 898.49 50.25
  C 898.48 30.58 909.83 13.24 928.43 6.98
  C 952.60 -1.15 979.25 13.96 983.27 39.58
  Q 983.80 42.96 983.79 59.56
  Q 983.72 142.66 983.73 225.75
  C 983.74 241.76 982.69 257.92 979.32 273.54
  C 963.62 346.37 914.19 406.80 845.02 435.19
  Z"
/>
<path fill="#042862" d="
  M 625.02 226.97
  L 624.23 186.54
  A 0.16 0.16 0.0 0 0 623.93 186.47
  L 623.70 186.99
  A 0.09 0.09 0.0 0 1 623.53 186.98
  L 623.36 186.46
  Q 622.76 184.54 622.44 186.52
  C 622.00 189.29 622.79 192.65 621.59 195.13
  A 0.85 0.85 0.0 0 1 619.98 194.79
  Q 619.90 192.10 617.73 191.64
  C 615.17 191.08 614.17 192.72 613.29 194.97
  Q 611.13 200.52 607.59 205.25
  C 604.78 209.00 604.40 212.10 604.29 216.55
  C 604.21 219.86 601.65 218.35 600.12 219.32
  C 596.37 221.71 597.93 227.83 594.35 230.07
  Q 593.92 230.34 593.70 230.78
  C 591.46 235.20 589.47 239.56 586.23 243.35
  C 584.04 245.91 584.14 248.33 584.58 252.14
  A 0.99 0.97 -19.5 0 1 584.12 253.08
  L 582.20 254.24
  Q 581.80 254.48 581.57 254.88
  C 580.53 256.77 581.59 259.43 578.65 260.03
  Q 578.16 260.13 577.82 260.49
  L 575.42 262.96
  Q 575.11 263.28 575.21 263.72
  L 576.01 267.39
  A 1.10 1.08 -29.5 0 1 575.73 268.37
  Q 573.39 270.86 570.42 272.62
  A 0.78 0.74 88.2 0 0 570.12 272.96
  L 564.66 284.95
  Q 564.47 285.37 564.11 285.65
  C 561.73 287.45 560.26 291.61 558.32 294.14
  Q 558.00 294.56 557.49 294.74
  Q 554.22 295.89 553.06 299.07
  Q 552.88 299.56 553.02 300.06
  Q 553.43 301.47 552.69 303.22
  Q 547.31 287.00 545.41 278.31
  C 541.08 258.54 539.56 236.94 539.54 215.93
  Q 539.46 132.59 539.56 49.25
  C 539.57 39.85 542.06 31.05 547.47 23.34
  C 568.52 -6.59 615.20 1.93 623.71 37.91
  Q 625.03 43.49 625.02 57.81
  Q 624.97 142.42 625.02 226.97
  Z"
/>
<path fill="#033b88" d="
  M 1839.29 8.96
  Q 1861.54 15.37 1882.00 25.99
  Q 1881.20 26.13 1882.65 27.25
  A 0.15 0.15 0.0 0 1 1882.48 27.50
  L 1882.17 27.32
  A 0.17 0.17 0.0 0 0 1881.96 27.58
  L 1882.18 27.80
  Q 1882.42 28.04 1882.19 28.29
  C 1875.56 35.72 1880.71 47.82 1880.71 56.77
  Q 1880.72 70.88 1880.76 85.00
  C 1880.77 89.65 1879.82 94.50 1879.98 99.33
  C 1880.15 104.82 1879.43 110.30 1880.40 115.79
  Q 1881.23 120.53 1880.84 125.37
  Q 1880.80 125.86 1880.48 126.25
  L 1878.94 128.18
  A 0.17 0.17 0.0 0 0 1879.05 128.45
  L 1879.38 128.49
  Q 1879.94 128.57 1879.66 129.06
  Q 1879.55 129.26 1879.24 129.27
  Q 1878.45 129.31 1876.27 129.04
  A 0.23 0.22 78.1 0 0 1876.05 129.38
  L 1876.26 129.74
  Q 1876.54 130.21 1875.89 130.05
  Q 1875.55 129.96 1875.29 130.32
  Q 1863.05 118.28 1848.61 109.29
  C 1844.70 106.85 1839.25 104.72 1834.77 101.83
  Q 1834.70 101.62 1834.75 101.38
  Q 1834.82 100.93 1834.47 100.63
  Q 1834.36 100.54 1834.25 100.50
  Q 1833.69 100.30 1834.05 100.05
  L 1835.13 99.31
  Q 1835.54 99.03 1836.03 99.03
  Q 1838.50 99.01 1838.73 96.00
  C 1839.39 87.62 1839.29 78.58 1839.66 72.00
  C 1840.66 54.25 1838.93 39.04 1839.13 22.50
  C 1839.16 20.53 1836.45 15.46 1838.60 14.07
  Q 1839.04 13.78 1839.14 13.27
  Q 1839.36 12.05 1839.64 10.85
  Q 1839.76 10.29 1839.79 10.27
  Q 1839.90 10.16 1840.16 10.11
  Q 1840.63 10.00 1840.16 9.86
  Q 1838.71 9.41 1839.29 8.96
  Z"
/>
<path fill="#034aa6" d="
  M 1233.49 11.88
  L 1233.85 11.97
  Q 1234.04 12.02 1234.04 12.22
  L 1234.04 12.65
  A 0.18 0.18 0.0 0 0 1234.29 12.82
  Q 1235.78 12.27 1237.11 12.93
  Q 1237.54 13.14 1237.91 13.46
  Q 1238.38 13.87 1239.02 13.78
  Q 1239.53 13.72 1239.94 14.01
  Q 1246.41 18.60 1249.86 25.84
  Q 1250.05 26.23 1250.02 26.67
  Q 1249.68 32.12 1253.35 35.80
  C 1255.98 38.44 1257.13 42.27 1258.64 45.56
  C 1260.23 49.04 1262.37 51.35 1264.94 54.00
  C 1267.11 56.24 1268.04 58.63 1269.50 61.26
  A 2.07 2.04 31.1 0 1 1269.75 62.24
  L 1269.75 65.49
  A 0.73 0.71 -80.3 0 0 1270.22 66.17
  C 1272.82 67.10 1274.28 69.53 1275.73 70.79
  Q 1278.45 73.14 1281.08 75.55
  A 1.70 1.70 0.0 0 1 1281.57 76.35
  Q 1282.64 79.96 1284.89 82.87
  Q 1285.56 83.72 1285.54 84.37
  Q 1285.50 85.49 1284.26 85.78
  A 0.22 0.22 0.0 0 0 1284.25 86.21
  L 1284.98 86.44
  Q 1285.44 86.59 1285.82 86.30
  Q 1287.42 85.06 1289.22 86.43
  A 0.76 0.76 0.0 0 1 1289.35 87.52
  L 1288.95 88.01
  Q 1288.75 88.25 1288.44 88.26
  Q 1287.94 88.26 1287.80 88.87
  C 1283.88 89.66 1279.11 89.93 1276.07 90.41
  Q 1254.41 93.85 1235.34 104.71
  C 1232.63 106.25 1230.24 108.71 1227.21 110.40
  L 1222.10 108.55
  L 1218.86 109.61
  L 1210.00 114.21
  Q 1208.88 114.44 1207.86 115.29
  C 1204.68 117.15 1201.20 118.82 1198.22 120.81
  Q 1182.07 131.59 1171.79 139.54
  Q 1171.11 140.07 1169.02 142.45
  L 1159.49 151.49
  Q 1157.64 152.55 1156.50 154.36
  L 1153.35 157.39
  L 1150.35 160.63
  L 1148.43 162.66
  L 1145.32 166.05
  Q 1143.75 167.19 1143.12 168.72
  L 1133.39 182.40
  Q 1131.58 184.03 1130.43 186.55
  L 1127.24 190.20
  Q 1126.16 190.91 1126.27 192.11
  L 1120.99 201.04
  Q 1120.02 202.45 1119.70 204.22
  L 1115.44 211.98
  L 1113.88 215.57
  L 1110.12 223.64
  Q 1108.02 225.37 1108.33 227.32
  L 1102.91 241.25
  L 1102.54 244.14
  C 1101.68 245.52 1102.17 247.12 1101.67 248.53
  C 1099.57 254.30 1097.02 259.99 1096.58 266.24
  C 1096.09 273.29 1095.90 285.65 1091.27 292.48
  C 1082.56 270.88 1078.93 243.75 1079.19 221.01
  C 1080.28 124.92 1141.37 41.02 1233.49 11.88
  Z"
/>
<path fill="#041b47" d="
  M 1788.88 13.39
  C 1793.79 14.42 1790.92 20.11 1786.81 19.53
  Q 1786.35 19.46 1786.12 19.87
  Q 1785.79 20.47 1785.03 20.27
  Q 1782.31 19.57 1780.06 20.63
  A 0.45 0.45 0.0 0 0 1779.83 20.86
  L 1778.12 24.35
  A 0.20 0.19 -32.3 0 1 1777.75 24.27
  Q 1777.75 24.13 1777.76 23.99
  Q 1777.76 23.99 1777.57 24.13
  Q 1775.79 25.48 1773.44 25.42
  Q 1772.96 25.40 1773.19 25.83
  Q 1773.25 25.95 1773.33 26.05
  Q 1773.39 26.14 1773.28 26.12
  Q 1769.36 25.47 1767.52 28.58
  C 1766.74 29.91 1765.64 30.83 1765.18 32.34
  Q 1764.99 32.97 1765.64 33.10
  L 1766.73 33.31
  A 0.10 0.10 0.0 0 1 1766.73 33.51
  Q 1766.48 33.57 1766.27 33.69
  A 0.11 0.11 0.0 0 0 1766.36 33.89
  Q 1767.74 33.36 1767.50 34.47
  A 0.42 0.41 80.5 0 0 1768.12 34.92
  L 1769.18 34.25
  Q 1769.73 33.91 1769.73 34.55
  Q 1769.84 48.64 1770.23 62.71
  Q 1770.23 62.80 1770.86 71.26
  Q 1771.32 77.45 1770.23 84.01
  Q 1770.11 84.74 1770.66 85.32
  Q 1771.03 85.71 1770.50 85.80
  L 1768.96 86.03
  Q 1768.28 86.14 1768.54 86.77
  Q 1768.98 87.85 1768.30 88.46
  Q 1767.90 88.82 1766.79 88.85
  Q 1762.89 88.95 1761.08 92.33
  C 1755.43 93.24 1749.41 93.62 1744.09 95.19
  C 1698.24 108.75 1666.91 141.34 1651.45 185.84
  C 1646.95 182.78 1650.64 172.17 1652.33 165.30
  Q 1654.35 157.09 1656.73 150.37
  C 1677.20 92.46 1718.11 46.69 1773.69 19.43
  Q 1781.95 15.38 1788.88 13.39
  Z"
/>
<path fill="#034aa6" d="
  M 1882.00 25.99
  C 1934.92 53.60 1973.19 101.14 1991.12 157.32
  C 1993.91 166.04 1995.86 175.99 1997.97 185.40
  C 1999.38 191.66 1999.60 197.73 2000.00 204.07
  L 2000.00 239.56
  C 1999.71 246.54 1999.73 253.11 1998.10 260.03
  Q 1996.03 268.84 1994.20 277.69
  C 1992.37 286.53 1989.16 295.60 1985.86 303.98
  C 1968.35 348.51 1935.94 388.03 1894.48 413.01
  Q 1893.59 410.45 1892.93 410.22
  A 3.01 2.15 -77.0 0 1 1891.63 407.09
  C 1892.46 402.24 1893.33 397.62 1893.33 392.59
  C 1893.31 382.72 1893.26 372.84 1893.59 362.97
  C 1893.83 355.96 1891.91 349.24 1891.65 343.00
  Q 1890.99 327.13 1891.78 311.25
  Q 1891.87 309.48 1891.08 307.92
  A 1.18 1.16 -5.9 0 0 1890.30 307.30
  L 1887.22 306.57
  Q 1886.78 306.46 1886.41 306.73
  L 1886.01 307.02
  A 0.15 0.15 0.0 0 1 1885.82 306.80
  L 1886.27 306.35
  Q 1886.59 306.04 1886.14 306.05
  Q 1885.41 306.08 1885.43 305.45
  C 1895.97 292.72 1904.71 275.39 1908.59 258.97
  C 1909.76 254.01 1912.34 248.20 1912.70 243.25
  C 1913.71 229.31 1914.05 211.19 1910.74 196.65
  C 1904.91 171.05 1893.69 149.51 1875.29 130.32
  Q 1875.55 129.96 1875.89 130.05
  Q 1876.54 130.21 1876.26 129.74
  L 1876.05 129.38
  A 0.23 0.22 78.1 0 1 1876.27 129.04
  Q 1878.45 129.31 1879.24 129.27
  Q 1879.55 129.26 1879.66 129.06
  Q 1879.94 128.57 1879.38 128.49
  L 1879.05 128.45
  A 0.17 0.17 0.0 0 1 1878.94 128.18
  L 1880.48 126.25
  Q 1880.80 125.86 1880.84 125.37
  Q 1881.23 120.53 1880.40 115.79
  C 1879.43 110.30 1880.15 104.82 1879.98 99.33
  C 1879.82 94.50 1880.77 89.65 1880.76 85.00
  Q 1880.72 70.88 1880.71 56.77
  C 1880.71 47.82 1875.56 35.72 1882.19 28.29
  Q 1882.42 28.04 1882.18 27.80
  L 1881.96 27.58
  A 0.17 0.17 0.0 0 1 1882.17 27.32
  L 1882.48 27.50
  A 0.15 0.15 0.0 0 0 1882.65 27.25
  Q 1881.20 26.13 1882.00 25.99
  Z"
/>
<path fill="#042862" d="
  M 267.67 44.59
  C 269.50 47.09 271.44 49.18 272.81 51.96
  Q 290.01 86.97 307.19 122.02
  Q 306.08 121.91 305.71 122.57
  Q 305.48 123.00 304.99 123.00
  L 303.92 123.00
  A 0.66 0.65 -89.1 0 0 303.27 123.64
  L 303.24 125.31
  Q 303.23 125.78 302.80 125.95
  C 295.84 128.65 289.90 136.30 285.01 141.20
  C 280.69 145.53 275.75 152.28 270.55 155.27
  C 263.47 159.34 259.39 165.16 253.05 169.78
  C 249.69 172.22 248.37 175.38 245.33 177.94
  Q 244.17 178.92 243.74 180.49
  A 0.41 0.41 0.0 0 1 243.05 180.67
  L 242.81 180.44
  A 0.64 0.64 0.0 0 0 241.91 180.42
  Q 241.49 180.82 241.64 181.54
  Q 232.09 162.07 222.41 142.68
  C 221.49 140.84 221.82 139.24 220.89 137.51
  L 223.55 132.27
  Q 223.58 133.97 225.08 133.98
  A 1.51 1.49 6.4 0 0 226.56 132.81
  Q 227.38 129.06 226.65 125.24
  L 229.48 120.74
  Q 229.67 121.77 230.02 121.86
  A 1.82 1.82 0.0 0 0 232.14 120.76
  Q 233.59 117.06 232.91 113.04
  L 235.09 108.35
  Q 235.61 112.23 237.57 108.88
  C 238.40 107.45 238.14 104.95 238.11 103.32
  A 0.54 0.54 0.0 0 0 237.46 102.80
  L 236.69 102.96
  Q 240.07 99.24 241.78 94.78
  Q 241.41 96.73 242.45 97.55
  Q 242.98 97.98 243.06 97.30
  C 243.38 94.21 245.80 92.89 244.54 89.57
  L 246.00 86.29
  Q 248.72 89.25 249.46 83.15
  Q 249.46 83.10 249.51 83.08
  Q 249.65 83.03 249.81 82.99
  Q 250.00 82.94 249.96 82.75
  Q 249.06 78.50 253.26 75.99
  C 256.05 74.32 255.44 71.01 256.28 68.42
  Q 256.79 66.84 257.13 65.16
  L 259.34 59.41
  Q 259.84 60.53 260.37 60.93
  Q 260.98 61.38 261.06 60.62
  L 261.72 53.60
  Q 265.90 49.43 267.67 44.59
  Z"
/>
<path fill="#041b47" d="
  M 1227.21 110.40
  C 1224.19 112.48 1221.55 115.38 1218.90 117.46
  Q 1194.61 136.47 1180.68 163.77
  C 1177.21 170.56 1174.47 178.78 1171.77 186.52
  Q 1170.31 190.72 1169.79 195.32
  C 1168.91 203.12 1167.67 210.84 1167.36 218.62
  C 1167.17 223.45 1166.78 227.95 1167.35 232.77
  C 1168.52 242.79 1169.22 254.10 1172.76 263.57
  C 1174.91 269.32 1176.99 275.45 1179.46 280.66
  Q 1188.13 298.96 1201.55 314.08
  Q 1201.63 315.65 1201.12 316.57
  A 0.60 0.60 0.0 0 1 1200.05 316.54
  L 1198.61 313.62
  Q 1198.42 313.24 1198.00 313.25
  Q 1197.84 313.25 1197.68 313.24
  A 0.29 0.29 0.0 0 0 1197.39 313.57
  Q 1197.71 315.56 1195.66 315.77
  A 1.04 1.03 -77.2 0 0 1194.87 316.27
  C 1192.80 319.73 1190.26 322.64 1188.61 326.28
  Q 1187.32 329.13 1185.92 331.93
  C 1183.91 335.97 1180.32 339.09 1177.59 342.82
  C 1175.82 345.22 1175.49 348.00 1174.77 350.84
  Q 1174.63 351.41 1174.48 350.91
  Q 1174.42 350.74 1174.47 350.50
  Q 1174.63 349.75 1174.46 349.01
  Q 1174.31 348.32 1174.14 349.00
  C 1172.96 353.63 1170.03 356.24 1168.36 360.16
  C 1165.17 367.64 1159.32 383.81 1148.73 383.34
  Q 1147.97 383.31 1148.46 383.88
  L 1150.33 386.03
  Q 1150.63 386.37 1150.45 386.79
  Q 1150.37 387.00 1150.19 387.09
  Q 1115.67 354.89 1097.31 311.35
  C 1096.56 309.57 1094.76 306.76 1094.25 303.96
  C 1093.52 300.02 1092.25 296.28 1091.27 292.48
  C 1095.90 285.65 1096.09 273.29 1096.58 266.24
  C 1097.02 259.99 1099.57 254.30 1101.67 248.53
  C 1102.17 247.12 1101.68 245.52 1102.54 244.14
  Q 1104.47 242.91 1102.91 241.25
  L 1108.33 227.32
  Q 1108.05 228.40 1108.36 228.98
  A 0.27 0.26 -52.8 0 0 1108.85 228.91
  L 1110.12 223.64
  L 1113.88 215.57
  Q 1114.58 216.70 1115.25 214.00
  Q 1115.59 212.64 1115.44 211.98
  L 1119.70 204.22
  Q 1122.34 202.23 1120.99 201.04
  L 1126.27 192.11
  Q 1126.84 192.47 1127.38 191.16
  Q 1127.69 190.41 1127.24 190.20
  L 1130.43 186.55
  Q 1132.82 185.27 1133.39 182.40
  L 1143.12 168.72
  Q 1145.10 167.90 1145.32 166.05
  L 1148.43 162.66
  Q 1150.45 162.36 1150.35 160.63
  L 1153.35 157.39
  Q 1155.64 157.11 1156.50 154.36
  Q 1157.64 152.55 1159.49 151.49
  Q 1164.88 147.64 1169.02 142.45
  Q 1171.11 140.07 1171.79 139.54
  Q 1182.07 131.59 1198.22 120.81
  C 1201.20 118.82 1204.68 117.15 1207.86 115.29
  Q 1208.69 116.08 1210.06 114.81
  Q 1210.48 114.41 1210.00 114.21
  L 1218.86 109.61
  Q 1218.83 110.85 1220.93 109.88
  Q 1221.35 109.68 1221.82 109.70
  Q 1223.05 109.75 1222.10 108.55
  L 1227.21 110.40
  Z"
/>
<path fill="#033b88" d="
  M 307.19 122.02
  L 352.01 213.48
  Q 350.45 212.86 350.01 214.47
  Q 349.16 217.63 346.24 217.78
  A 1.27 1.26 -71.0 0 0 345.36 218.21
  C 343.70 220.11 342.39 222.27 340.70 223.90
  C 336.51 227.92 332.13 231.60 327.99 235.79
  C 324.42 239.40 319.71 242.75 316.61 245.82
  C 309.32 253.02 303.23 257.29 295.91 262.49
  C 294.23 263.67 292.46 265.46 289.94 266.40
  A 1.13 1.13 0.0 0 0 289.27 267.07
  Q 288.73 268.51 287.19 267.88
  C 286.43 267.58 286.49 267.26 285.86 266.79
  Q 285.50 266.53 285.13 266.78
  L 283.92 267.58
  L 241.64 181.54
  Q 241.49 180.82 241.91 180.42
  A 0.64 0.64 0.0 0 1 242.81 180.44
  L 243.05 180.67
  A 0.41 0.41 0.0 0 0 243.74 180.49
  Q 244.17 178.92 245.33 177.94
  C 248.37 175.38 249.69 172.22 253.05 169.78
  C 259.39 165.16 263.47 159.34 270.55 155.27
  C 275.75 152.28 280.69 145.53 285.01 141.20
  C 289.90 136.30 295.84 128.65 302.80 125.95
  Q 303.23 125.78 303.24 125.31
  L 303.27 123.64
  A 0.66 0.65 -89.1 0 1 303.92 123.00
  L 304.99 123.00
  Q 305.48 123.00 305.71 122.57
  Q 306.08 121.91 307.19 122.02
  Z"
/>
<path fill="#033b88" d="
  M 1574.76 144.67
  Q 1574.93 144.73 1575.10 144.81
  Q 1575.63 145.04 1575.67 145.62
  L 1575.87 148.80
  Q 1575.89 149.07 1576.17 149.04
  L 1576.45 149.00
  Q 1576.95 148.93 1577.24 149.33
  C 1582.40 156.31 1578.90 160.34 1578.63 167.71
  C 1578.33 175.90 1579.70 183.71 1578.65 191.62
  Q 1578.57 192.25 1579.21 192.24
  Q 1579.80 192.23 1580.24 192.75
  Q 1580.50 193.06 1580.49 193.45
  C 1580.47 200.29 1580.82 207.59 1580.79 213.90
  C 1580.72 232.94 1580.25 252.16 1580.83 271.18
  C 1580.94 274.56 1580.10 279.49 1580.78 282.50
  Q 1582.52 290.13 1581.75 297.96
  A 1.56 1.49 -21.9 0 1 1581.35 298.84
  Q 1578.79 301.60 1579.97 305.24
  A 0.38 0.38 0.0 0 1 1579.55 305.73
  L 1577.81 305.44
  Q 1577.20 305.34 1577.32 305.95
  Q 1577.47 306.71 1577.14 307.32
  C 1556.13 255.62 1555.14 196.98 1574.76 144.67
  Z"
/>
<path fill="#033b88" d="
  M 625.02 226.97
  Q 625.79 257.17 636.53 284.35
  C 634.68 285.97 635.18 289.16 636.51 291.31
  C 638.81 295.01 639.28 299.60 640.58 302.87
  C 649.44 325.10 660.21 342.82 675.31 361.67
  Q 674.07 362.25 674.40 363.95
  Q 675.16 367.77 672.00 370.36
  A 1.07 1.03 76.3 0 0 671.64 370.98
  Q 671.16 373.68 669.08 375.37
  Q 668.59 375.77 668.76 376.37
  C 669.26 378.17 667.98 379.40 667.70 380.63
  C 666.79 384.73 667.44 386.49 663.60 389.17
  A 1.68 1.66 -6.4 0 0 662.98 389.94
  Q 661.98 392.37 660.83 394.74
  C 659.16 398.15 656.07 400.36 656.25 405.19
  A 1.64 1.63 69.8 0 1 655.62 406.56
  Q 652.22 409.19 650.05 412.88
  Q 649.78 413.34 649.33 413.62
  Q 646.66 415.29 643.79 414.15
  A 0.56 0.56 0.0 0 0 643.35 415.17
  L 643.69 415.33
  A 0.20 0.19 48.5 0 1 643.67 415.69
  L 643.32 415.81
  Q 643.25 415.83 643.32 415.86
  Q 643.97 416.14 643.66 416.59
  Q 579.15 375.32 552.69 303.22
  Q 553.43 301.47 553.02 300.06
  Q 552.88 299.56 553.06 299.07
  Q 554.22 295.89 557.49 294.74
  Q 558.00 294.56 558.32 294.14
  C 560.26 291.61 561.73 287.45 564.11 285.65
  Q 564.47 285.37 564.66 284.95
  L 570.12 272.96
  A 0.78 0.74 88.2 0 1 570.42 272.62
  Q 573.39 270.86 575.73 268.37
  A 1.10 1.08 -29.5 0 0 576.01 267.39
  L 575.21 263.72
  Q 575.11 263.28 575.42 262.96
  L 577.82 260.49
  Q 578.16 260.13 578.65 260.03
  C 581.59 259.43 580.53 256.77 581.57 254.88
  Q 581.80 254.48 582.20 254.24
  L 584.12 253.08
  A 0.99 0.97 -19.5 0 0 584.58 252.14
  C 584.14 248.33 584.04 245.91 586.23 243.35
  C 589.47 239.56 591.46 235.20 593.70 230.78
  Q 593.92 230.34 594.35 230.07
  C 597.93 227.83 596.37 221.71 600.12 219.32
  C 601.65 218.35 604.21 219.86 604.29 216.55
  C 604.40 212.10 604.78 209.00 607.59 205.25
  Q 611.13 200.52 613.29 194.97
  C 614.17 192.72 615.17 191.08 617.73 191.64
  Q 619.90 192.10 619.98 194.79
  A 0.85 0.85 0.0 0 0 621.59 195.13
  C 622.79 192.65 622.00 189.29 622.44 186.52
  Q 622.76 184.54 623.36 186.46
  L 623.53 186.98
  A 0.09 0.09 0.0 0 0 623.70 186.99
  L 623.93 186.47
  A 0.16 0.16 0.0 0 1 624.23 186.54
  L 625.02 226.97
  Z"
/>
<path fill="#042862" d="
  M 97.16 197.47
  L 97.28 198.04
  Q 97.37 198.49 97.76 198.26
  L 98.07 198.08
  Q 98.66 197.72 98.63 198.42
  Q 98.50 200.82 96.48 201.99
  A 0.65 0.65 0.0 0 0 96.30 202.96
  Q 98.11 205.25 103.31 210.93
  C 107.72 215.75 111.56 224.41 116.95 230.08
  C 120.93 234.26 125.73 237.03 125.68 243.43
  A 1.13 1.09 -71.2 0 0 126.09 244.30
  Q 134.23 251.00 139.58 259.94
  C 142.79 265.30 142.40 269.65 148.11 273.88
  C 150.67 275.77 152.14 277.93 150.09 280.71
  Q 149.84 281.06 149.91 281.48
  Q 150.18 282.95 149.55 284.83
  L 112.72 359.76
  Q 112.00 359.27 111.58 360.62
  Q 111.41 361.16 111.07 360.71
  Q 110.89 360.47 110.73 360.50
  C 107.55 361.24 105.46 360.03 104.30 356.85
  C 102.55 352.07 100.64 347.37 96.68 343.83
  C 91.39 339.10 88.03 332.40 84.77 324.74
  C 83.89 322.67 80.67 321.46 79.20 319.34
  C 75.39 313.85 71.91 308.99 67.58 303.88
  C 65.28 301.17 65.47 298.44 62.32 295.68
  C 58.61 292.41 54.92 286.88 58.00 282.53
  Q 59.14 280.93 59.67 279.54
  A 0.31 0.30 -21.6 0 0 59.11 279.30
  Q 59.01 279.50 58.91 279.74
  A 0.26 0.26 0.0 0 1 58.42 279.57
  L 59.92 273.47
  L 97.16 197.47
  Z"
/>
<path fill="#034aa6" d="
  M 352.01 213.48
  Q 393.28 297.47 434.51 381.49
  C 437.08 386.73 439.27 392.96 439.95 398.73
  C 442.83 423.10 425.15 445.33 400.06 446.25
  C 380.29 446.97 366.97 436.14 358.45 418.87
  Q 321.12 343.26 283.92 267.58
  L 285.13 266.78
  Q 285.50 266.53 285.86 266.79
  C 286.49 267.26 286.43 267.58 287.19 267.88
  Q 288.73 268.51 289.27 267.07
  A 1.13 1.13 0.0 0 1 289.94 266.40
  C 292.46 265.46 294.23 263.67 295.91 262.49
  C 303.23 257.29 309.32 253.02 316.61 245.82
  C 319.71 242.75 324.42 239.40 327.99 235.79
  C 332.13 231.60 336.51 227.92 340.70 223.90
  C 342.39 222.27 343.70 220.11 345.36 218.21
  A 1.27 1.26 -71.0 0 1 346.24 217.78
  Q 349.16 217.63 350.01 214.47
  Q 350.45 212.86 352.01 213.48
  Z"
/>
<path fill="#041b47" d="
  M 1653.21 267.06
  Q 1654.42 269.40 1655.13 271.43
  C 1656.75 276.09 1659.10 280.22 1661.26 284.65
  C 1668.84 300.19 1680.60 314.31 1693.51 325.74
  Q 1697.83 329.57 1711.18 338.32
  Q 1722.64 345.83 1739.75 351.34
  Q 1741.03 356.02 1746.28 359.25
  A 1.19 1.18 -80.0 0 1 1746.82 360.03
  C 1748.84 370.31 1747.83 379.59 1749.30 389.50
  Q 1749.36 389.93 1748.95 389.82
  Q 1747.66 389.51 1747.23 390.72
  C 1746.43 392.95 1748.60 396.31 1746.53 397.90
  A 0.89 0.86 -17.3 0 0 1746.19 398.52
  L 1745.93 401.81
  A 0.47 0.47 0.0 0 1 1745.43 402.24
  L 1743.39 402.13
  A 0.40 0.40 0.0 0 0 1743.10 402.83
  L 1745.20 404.72
  A 0.68 0.68 0.0 0 1 1745.44 405.28
  C 1745.24 410.10 1750.67 408.72 1753.59 410.19
  Q 1753.97 410.38 1754.06 410.79
  L 1754.44 412.47
  A 0.37 0.31 13.1 0 0 1754.60 412.68
  L 1756.74 413.89
  Q 1757.12 414.11 1757.56 414.14
  Q 1762.41 414.46 1762.54 419.53
  A 0.36 0.36 0.0 0 1 1762.06 419.89
  L 1758.18 418.54
  C 1744.33 410.16 1736.80 404.89 1725.25 395.33
  C 1705.72 379.17 1688.45 358.89 1676.05 337.69
  Q 1669.46 326.42 1661.62 309.01
  C 1657.77 300.47 1655.44 291.08 1652.57 281.95
  Q 1650.28 274.68 1653.21 267.06
  Z"
/>
<path fill="#041b47" d="
  M 59.92 273.47
  L 58.42 279.57
  A 0.26 0.26 0.0 0 0 58.91 279.74
  Q 59.01 279.50 59.11 279.30
  A 0.31 0.30 -21.6 0 1 59.67 279.54
  Q 59.14 280.93 58.00 282.53
  C 54.92 286.88 58.61 292.41 62.32 295.68
  C 65.47 298.44 65.28 301.17 67.58 303.88
  C 71.91 308.99 75.39 313.85 79.20 319.34
  C 80.67 321.46 83.89 322.67 84.77 324.74
  C 88.03 332.40 91.39 339.10 96.68 343.83
  C 100.64 347.37 102.55 352.07 104.30 356.85
  C 105.46 360.03 107.55 361.24 110.73 360.50
  Q 110.89 360.47 111.07 360.71
  Q 111.41 361.16 111.58 360.62
  Q 112.00 359.27 112.72 359.76
  Q 97.94 389.99 83.00 420.14
  C 78.83 428.56 73.36 435.34 66.08 440.07
  C 50.74 450.06 29.39 447.90 15.71 435.82
  Q 2.90 424.50 0.00 406.38
  L 0.00 401.69
  C 0.36 398.06 0.53 395.60 2.41 392.13
  C 3.37 390.35 3.81 387.97 4.61 386.32
  Q 32.26 329.91 59.92 273.47
  Z"
/>
<circle fill="#034aa6" cx="220.98" cy="318.33" r="42.48"/>
<path fill="#042862" d="
  M 636.53 284.35
  C 653.82 318.59 679.53 343.73 715.32 356.89
  C 755.97 371.84 801.93 365.75 837.83 342.08
  Q 838.59 342.72 837.91 344.47
  Q 837.72 344.95 838.05 345.35
  L 841.08 348.93
  Q 841.25 349.13 841.73 349.25
  Q 841.96 349.30 842.30 349.16
  A 1.28 1.28 0.0 0 1 844.04 350.56
  Q 843.05 356.64 842.83 362.24
  C 842.73 364.57 843.23 368.42 842.76 371.62
  Q 842.69 372.12 842.90 372.58
  C 846.08 379.53 844.29 385.39 845.19 392.50
  C 846.79 405.10 843.19 416.15 843.38 427.50
  C 843.41 429.67 844.56 431.32 846.75 431.25
  A 0.84 0.83 37.8 0 1 846.96 432.90
  Q 845.69 433.18 845.02 435.19
  Q 832.04 441.05 818.54 443.24
  Q 818.40 441.54 816.96 441.44
  Q 816.50 441.41 816.48 440.95
  Q 816.42 439.96 815.50 439.92
  C 802.16 439.29 791.73 436.78 779.29 432.85
  Q 735.58 419.04 701.95 389.04
  Q 688.74 377.25 675.31 361.67
  C 660.21 342.82 649.44 325.10 640.58 302.87
  C 639.28 299.60 638.81 295.01 636.51 291.31
  C 635.18 289.16 634.68 285.97 636.53 284.35
  Z"
/>
<path fill="#034aa6" d="
  M 1228.79 433.63
  Q 1227.68 433.24 1227.71 432.53
  Q 1227.72 431.98 1228.27 432.04
  Q 1230.07 432.23 1230.61 430.86
  C 1232.11 427.02 1235.01 423.49 1237.68 420.40
  A 1.32 1.31 65.5 0 0 1238.00 419.54
  L 1238.00 418.25
  Q 1238.00 417.75 1238.50 417.75
  L 1238.96 417.75
  Q 1239.42 417.75 1239.61 417.33
  Q 1243.48 408.68 1247.88 400.24
  C 1249.76 396.64 1248.25 394.03 1252.21 391.16
  C 1255.57 388.74 1258.27 385.84 1258.45 381.49
  C 1258.54 379.17 1260.00 375.85 1262.12 373.81
  C 1265.33 370.72 1265.94 366.74 1267.18 363.49
  Q 1268.40 360.33 1269.10 356.96
  Q 1269.20 356.50 1268.73 356.50
  L 1267.77 356.50
  Q 1266.95 356.50 1267.50 355.89
  L 1268.99 354.24
  Q 1281.40 357.39 1288.07 357.45
  C 1298.46 357.53 1309.95 358.32 1320.21 356.95
  C 1325.90 356.20 1332.19 353.89 1338.09 352.33
  C 1360.42 346.40 1377.36 333.97 1394.30 319.28
  C 1406.03 309.10 1419.40 302.51 1435.35 306.77
  C 1449.21 310.47 1461.43 320.79 1466.26 334.50
  C 1469.26 343.03 1469.88 357.36 1466.03 365.81
  Q 1461.98 374.69 1455.43 381.20
  C 1426.72 409.72 1390.91 430.23 1351.56 439.22
  C 1341.00 441.64 1332.57 443.96 1320.43 444.53
  Q 1307.46 445.13 1283.25 444.68
  C 1273.53 444.49 1265.96 443.92 1256.89 441.40
  C 1247.25 438.71 1238.10 437.95 1228.79 433.63
  Z"
/>
<path fill="#033b88" d="
  M 1885.43 305.45
  Q 1885.41 306.08 1886.14 306.05
  Q 1886.59 306.04 1886.27 306.35
  L 1885.82 306.80
  A 0.15 0.15 0.0 0 0 1886.01 307.02
  L 1886.41 306.73
  Q 1886.78 306.46 1887.22 306.57
  L 1890.30 307.30
  A 1.18 1.16 -5.9 0 1 1891.08 307.92
  Q 1891.87 309.48 1891.78 311.25
  Q 1890.99 327.13 1891.65 343.00
  C 1891.91 349.24 1893.83 355.96 1893.59 362.97
  C 1893.26 372.84 1893.31 382.72 1893.33 392.59
  C 1893.33 397.62 1892.46 402.24 1891.63 407.09
  A 3.01 2.15 -77.0 0 0 1892.93 410.22
  Q 1893.59 410.45 1894.48 413.01
  Q 1878.17 422.99 1860.35 430.12
  C 1854.92 432.30 1847.84 434.33 1841.51 436.48
  C 1835.37 438.57 1829.04 439.47 1822.74 440.99
  C 1817.58 442.24 1812.48 442.33 1807.21 442.94
  Q 1806.34 441.57 1804.88 440.80
  A 1.36 1.30 0.6 0 1 1804.33 440.26
  Q 1803.56 438.87 1801.31 439.36
  C 1803.70 438.66 1808.80 437.80 1807.17 434.51
  Q 1806.68 433.52 1806.36 432.49
  Q 1806.26 432.19 1806.42 431.91
  Q 1806.78 431.30 1807.33 431.02
  Q 1807.93 430.70 1807.32 430.41
  L 1806.84 430.18
  A 0.23 0.22 -33.6 0 1 1806.93 429.75
  Q 1807.06 429.74 1807.20 429.76
  Q 1807.66 429.83 1807.42 429.43
  L 1806.82 428.43
  A 0.14 0.14 0.0 0 1 1807.01 428.24
  L 1807.37 428.45
  Q 1807.71 428.66 1807.72 428.25
  Q 1807.74 427.35 1808.12 426.57
  Q 1808.33 426.13 1808.29 425.64
  C 1807.38 415.33 1807.30 406.04 1808.35 395.72
  C 1808.81 391.10 1807.87 386.13 1807.71 379.39
  C 1807.61 375.21 1808.00 367.47 1807.37 361.46
  Q 1807.32 361.00 1807.78 361.00
  L 1808.17 361.00
  Q 1808.79 361.00 1808.78 360.38
  Q 1808.74 356.51 1802.92 355.93
  Q 1811.15 353.36 1819.01 351.60
  Q 1822.97 350.72 1826.69 349.03
  C 1831.22 346.97 1836.28 345.17 1840.32 343.07
  Q 1866.88 329.27 1885.43 305.45
  Z"
/>
<path fill="#033b88" d="
  M 1201.55 314.08
  Q 1229.34 344.28 1268.99 354.24
  L 1267.50 355.89
  Q 1266.95 356.50 1267.77 356.50
  L 1268.73 356.50
  Q 1269.20 356.50 1269.10 356.96
  Q 1268.40 360.33 1267.18 363.49
  C 1265.94 366.74 1265.33 370.72 1262.12 373.81
  C 1260.00 375.85 1258.54 379.17 1258.45 381.49
  C 1258.27 385.84 1255.57 388.74 1252.21 391.16
  C 1248.25 394.03 1249.76 396.64 1247.88 400.24
  Q 1243.48 408.68 1239.61 417.33
  Q 1239.42 417.75 1238.96 417.75
  L 1238.50 417.75
  Q 1238.00 417.75 1238.00 418.25
  L 1238.00 419.54
  A 1.32 1.31 65.5 0 1 1237.68 420.40
  C 1235.01 423.49 1232.11 427.02 1230.61 430.86
  Q 1230.07 432.23 1228.27 432.04
  Q 1227.72 431.98 1227.71 432.53
  Q 1227.68 433.24 1228.79 433.63
  Q 1226.21 433.16 1222.69 431.81
  Q 1181.91 416.23 1150.19 387.09
  Q 1150.37 387.00 1150.45 386.79
  Q 1150.63 386.37 1150.33 386.03
  L 1148.46 383.88
  Q 1147.97 383.31 1148.73 383.34
  C 1159.32 383.81 1165.17 367.64 1168.36 360.16
  C 1170.03 356.24 1172.96 353.63 1174.14 349.00
  Q 1174.31 348.32 1174.46 349.01
  Q 1174.63 349.75 1174.47 350.50
  Q 1174.42 350.74 1174.48 350.91
  Q 1174.63 351.41 1174.77 350.84
  C 1175.49 348.00 1175.82 345.22 1177.59 342.82
  C 1180.32 339.09 1183.91 335.97 1185.92 331.93
  Q 1187.32 329.13 1188.61 326.28
  C 1190.26 322.64 1192.80 319.73 1194.87 316.27
  A 1.04 1.03 -77.2 0 1 1195.66 315.77
  Q 1197.71 315.56 1197.39 313.57
  A 0.29 0.29 0.0 0 1 1197.68 313.24
  Q 1197.84 313.25 1198.00 313.25
  Q 1198.42 313.24 1198.61 313.62
  L 1200.05 316.54
  A 0.60 0.60 0.0 0 0 1201.12 316.57
  Q 1201.63 315.65 1201.55 314.08
  Z"
/>
<path fill="#042862" d="
  M 1739.75 351.34
  C 1759.61 357.21 1782.91 359.89 1802.92 355.93
  Q 1808.74 356.51 1808.78 360.38
  Q 1808.79 361.00 1808.17 361.00
  L 1807.78 361.00
  Q 1807.32 361.00 1807.37 361.46
  C 1808.00 367.47 1807.61 375.21 1807.71 379.39
  C 1807.87 386.13 1808.81 391.10 1808.35 395.72
  C 1807.30 406.04 1807.38 415.33 1808.29 425.64
  Q 1808.33 426.13 1808.12 426.57
  Q 1807.74 427.35 1807.72 428.25
  Q 1807.71 428.66 1807.37 428.45
  L 1807.01 428.24
  A 0.14 0.14 0.0 0 0 1806.82 428.43
  L 1807.42 429.43
  Q 1807.66 429.83 1807.20 429.76
  Q 1807.06 429.74 1806.93 429.75
  A 0.23 0.22 -33.6 0 0 1806.84 430.18
  L 1807.32 430.41
  Q 1807.93 430.70 1807.33 431.02
  Q 1806.78 431.30 1806.42 431.91
  Q 1806.26 432.19 1806.36 432.49
  Q 1806.68 433.52 1807.17 434.51
  C 1808.80 437.80 1803.70 438.66 1801.31 439.36
  Q 1799.15 438.51 1796.82 436.52
  C 1792.27 432.64 1785.14 432.63 1779.92 429.45
  Q 1778.34 428.49 1776.85 427.86
  Q 1767.31 423.79 1758.18 418.54
  L 1762.06 419.89
  A 0.36 0.36 0.0 0 0 1762.54 419.53
  Q 1762.41 414.46 1757.56 414.14
  Q 1757.12 414.11 1756.74 413.89
  L 1754.60 412.68
  A 0.37 0.31 13.1 0 1 1754.44 412.47
  L 1754.06 410.79
  Q 1753.97 410.38 1753.59 410.19
  C 1750.67 408.72 1745.24 410.10 1745.44 405.28
  A 0.68 0.68 0.0 0 0 1745.20 404.72
  L 1743.10 402.83
  A 0.40 0.40 0.0 0 1 1743.39 402.13
  L 1745.43 402.24
  A 0.47 0.47 0.0 0 0 1745.93 401.81
  L 1746.19 398.52
  A 0.89 0.86 -17.3 0 1 1746.53 397.90
  C 1748.60 396.31 1746.43 392.95 1747.23 390.72
  Q 1747.66 389.51 1748.95 389.82
  Q 1749.36 389.93 1749.30 389.50
  C 1747.83 379.59 1748.84 370.31 1746.82 360.03
  A 1.19 1.18 -80.0 0 0 1746.28 359.25
  Q 1741.03 356.02 1739.75 351.34
  Z"
/>
<path fill="#034aa6" d="
  M 675.31 361.67
  Q 688.74 377.25 701.95 389.04
  Q 735.58 419.04 779.29 432.85
  C 791.73 436.78 802.16 439.29 815.50 439.92
  Q 816.42 439.96 816.48 440.95
  Q 816.50 441.41 816.96 441.44
  Q 818.40 441.54 818.54 443.24
  Q 796.53 448.48 774.19 450.00
  L 747.44 450.00
  Q 741.72 449.60 725.24 447.24
  C 696.61 443.15 668.08 431.83 643.66 416.59
  Q 643.97 416.14 643.32 415.86
  Q 643.25 415.83 643.32 415.81
  L 643.67 415.69
  A 0.20 0.19 48.5 0 0 643.69 415.33
  L 643.35 415.17
  A 0.56 0.56 0.0 0 1 643.79 414.15
  Q 646.66 415.29 649.33 413.62
  Q 649.78 413.34 650.05 412.88
  Q 652.22 409.19 655.62 406.56
  A 1.64 1.63 69.8 0 0 656.25 405.19
  C 656.07 400.36 659.16 398.15 660.83 394.74
  Q 661.98 392.37 662.98 389.94
  A 1.68 1.66 -6.4 0 1 663.60 389.17
  C 667.44 386.49 666.79 384.73 667.70 380.63
  C 667.98 379.40 669.26 378.17 668.76 376.37
  Q 668.59 375.77 669.08 375.37
  Q 671.16 373.68 671.64 370.98
  A 1.07 1.03 76.3 0 1 672.00 370.36
  Q 675.16 367.77 674.40 363.95
  Q 674.07 362.25 675.31 361.67
  Z"
/>
</svg>
